PathFileType  4	(X/Y/Z) C:\Users\Jenny Yong\Documents\NMBL\GaitRetraining\Subject20\WeekOne\
DataRate	CameraRate	NumFrames	NumMarkers	Units	OrigDataRate	OrigDataStartFrame	OrigNumFrames
  200.0		  200.0		    5		     42		 mm	  200.0	      217	    289
Frame#	Time	R.Shoulder			L.Shoulder			R.Clavicle			L.Clavicle			R.Biceps			R.Elbow			R.Forearm			R.Wrist			L.Biceps			L.Elbow			L.Forearm			L.Wrist			R.ASIS			L.ASIS			R.PSIS			S2			L.PSIS			R.TH1			R.TH2			R.TH3			R.Knee			R.SH1			R.SH2			R.SH3			R.SH4			R.Ankle			R.MAnkle			R.Heel			R.MT5			R.Toe			L.TH1			L.TH2			L.TH3			L.TH4			L.Knee			L.SH1			L.SH2			L.SH3			L.Ankle			L.Heel			L.MT5			L.Toe			
		X1	Y1	Z1	X2	Y2	Z2	X3	Y3	Z3	X4	Y4	Z4	X5	Y5	Z5	X6	Y6	Z6	X7	Y7	Z7	X8	Y8	Z8	X9	Y9	Z9	X10	Y10	Z10	X11	Y11	Z11	X12	Y12	Z12	X13	Y13	Z13	X14	Y14	Z14	X15	Y15	Z15	X16	Y16	Z16	X17	Y17	Z17	X18	Y18	Z18	X19	Y19	Z19	X20	Y20	Z20	X21	Y21	Z21	X22	Y22	Z22	X23	Y23	Z23	X24	Y24	Z24	X25	Y25	Z25	X26	Y26	Z26	X27	Y27	Z27	X28	Y28	Z28	X29	Y29	Z29	X30	Y30	Z30	X31	Y31	Z31	X32	Y32	Z32	X33	Y33	Z33	X34	Y34	Z34	X35	Y35	Z35	X36	Y36	Z36	X37	Y37	Z37	X38	Y38	Z38	X39	Y39	Z39	X40	Y40	Z40	X41	Y41	Z41	X42	Y42	Z42	

217	1.08000	2464.103	1329.465	23.271	2568.923	1324.491	-279.649	2554.853	1276.228	-91.875	2568.274	1275.745	-132.036	2310.228	1227.657	77.238	2266.868	1149.019	196.048	2363.984	1107.351	123.445	2476.694	1095.411	145.389	2543.646	1153.685	-369.291	2511.278	1043.084	-417.786	2573.620	1007.575	-341.772	2674.202	1089.041	-275.482	2498.029	913.394	6.232	2541.194	874.316	-237.085	2333.467	921.709	-97.491	2342.614	909.622	-132.555	2356.204	919.793	-184.716	2519.377	695.469	69.462	2430.752	653.628	29.189	2487.649	535.462	18.711	2588.664	453.829	17.545	2615.344	373.932	10.511	2596.081	262.858	20.193	2533.869	385.824	14.497	2511.994	263.938	8.206	2535.659	87.127	-32.530	2558.598	102.663	-111.951	2470.421	50.000	-75.384	2647.145	29.840	-16.860	2690.268	59.895	-78.389	2487.715	675.831	-275.017	2461.389	549.317	-249.034	2386.552	705.908	-287.190	2345.993	584.408	-251.123	2357.516	428.332	-241.818	2282.894	360.412	-235.326	2280.233	452.199	-253.355	2166.349	438.252	-276.039	1980.355	374.942	-278.348	1951.206	453.648	-234.734	1888.366	289.892	-287.782	1898.123	241.682	-229.976
218	1.08500	2479.456	1325.668	25.797	2581.728	1321.015	-279.897	2568.276	1272.004	-91.253	2582.090	1272.120	-131.758	2326.323	1221.382	82.297	2286.003	1142.474	201.184	2381.884	1101.195	127.716	2496.087	1090.614	147.689	2553.176	1150.166	-368.613	2518.609	1040.364	-416.512	2581.966	1002.838	-342.463	2684.768	1081.584	-276.759	2510.052	910.712	8.466	2553.780	869.475	-236.055	2343.987	915.373	-98.828	2354.763	902.932	-134.109	2367.522	912.739	-185.822	2529.720	693.084	70.580	2443.832	650.952	25.148	2500.736	533.428	17.949	2604.716	453.107	18.561	2626.804	372.073	11.551	2604.198	261.245	18.765	2545.173	385.951	14.479	2520.189	264.939	7.455	2538.435	87.752	-34.908	2562.873	103.184	-114.107	2470.753	50.849	-76.911	2647.814	30.520	-16.456	2691.973	58.051	-78.573	2501.938	673.696	-274.355	2480.666	545.985	-248.577	2397.707	698.845	-284.773	2363.427	576.528	-248.710	2378.423	422.408	-241.343	2303.853	356.832	-234.578	2303.757	449.228	-251.681	2189.189	438.184	-274.242	2002.253	379.150	-276.577	1974.214	457.981	-231.814	1909.560	296.276	-288.327	1918.333	246.894	-231.126
219	1.09000	2493.379	1321.545	27.840	2594.798	1318.346	-279.944	2582.201	1268.798	-90.512	2595.925	1269.044	-131.356	2342.340	1215.353	87.439	2305.453	1135.969	206.064	2400.241	1094.657	131.444	2514.936	1085.510	149.617	2562.124	1147.162	-367.790	2525.161	1037.825	-415.293	2589.878	998.510	-343.193	2695.801	1074.767	-278.153	2521.755	908.826	10.901	2566.436	865.053	-235.088	2355.265	912.282	-101.376	2366.849	897.365	-136.083	2379.989	908.706	-188.006	2539.784	690.188	72.112	2456.205	648.111	22.619	2512.040	530.921	17.013	2618.889	452.357	19.769	2636.316	369.906	12.805	2611.260	259.828	19.773	2555.300	386.112	13.931	2527.188	265.466	6.992	2539.843	88.922	-35.755	2564.553	103.129	-115.757	2471.712	52.579	-77.823	2647.862	30.625	-16.618	2692.507	56.486	-79.209	2515.459	671.988	-273.003	2500.169	543.108	-248.885	2410.776	691.995	-285.770	2382.288	568.770	-247.243	2399.678	418.054	-240.637	2325.611	353.872	-234.115	2326.828	446.545	-249.269	2211.806	438.830	-272.562	2025.136	384.203	-274.902	1997.983	463.279	-229.377	1931.623	301.839	-288.601	1939.586	251.288	-231.979
220	1.09500	2507.106	1317.341	29.149	2607.017	1315.208	-280.107	2595.323	1264.782	-90.213	2609.148	1265.827	-131.205	2359.718	1208.855	92.390	2325.242	1129.422	210.801	2419.713	1089.104	135.228	2534.401	1080.912	152.001	2569.850	1144.267	-367.283	2531.033	1035.112	-413.932	2598.036	994.888	-344.132	2705.797	1067.759	-280.005	2533.520	907.678	13.423	2578.586	860.557	-234.105	2373.950	905.591	-95.320	2378.310	892.455	-138.329	2395.881	896.976	-185.960	2550.376	687.391	73.360	2467.698	645.854	22.041	2522.713	528.230	15.732	2629.778	450.736	21.378	2645.047	367.164	14.204	2616.220	258.160	21.899	2564.373	385.183	12.935	2532.650	266.428	5.587	2541.232	89.493	-36.671	2564.852	102.817	-116.997	2471.735	52.668	-77.893	2647.668	30.400	-16.743	2692.752	55.259	-79.694	2530.234	670.082	-272.041	2519.134	540.668	-249.504	2425.201	687.280	-282.436	2400.826	562.985	-245.183	2422.021	414.533	-239.868	2347.448	351.132	-232.945	2350.381	443.809	-247.207	2235.085	438.576	-269.971	2046.904	386.319	-273.004	2019.924	465.391	-226.724	1954.039	306.094	-288.440	1961.515	255.281	-232.288
221	1.10000	2521.261	1314.045	30.973	2618.559	1312.151	-279.918	2609.326	1262.656	-89.190	2622.265	1262.970	-130.824	2376.702	1203.384	96.828	2344.953	1123.085	215.361	2439.180	1082.981	138.203	2552.939	1075.727	152.937	2576.292	1141.001	-366.529	2537.391	1033.592	-412.442	2606.089	992.075	-345.130	2715.870	1063.198	-281.234	2544.939	906.640	15.865	2590.753	856.341	-233.089	2386.454	903.455	-96.978	2391.163	888.188	-140.952	2407.014	889.506	-191.249	2560.391	684.102	74.338	2478.156	643.416	21.745	2532.833	525.911	13.271	2638.648	448.178	22.696	2653.099	364.154	15.651	2619.616	256.203	22.889	2573.970	385.690	13.753	2536.947	267.689	4.627	2541.959	89.759	-37.281	2566.135	103.270	-117.716	2472.135	52.217	-77.383	2647.835	30.815	-16.270	2693.465	54.918	-79.432	2545.418	668.476	-271.085	2537.818	538.184	-249.843	2440.252	683.171	-280.133	2419.093	559.072	-245.938	2444.402	411.245	-239.227	2369.345	348.390	-231.972	2374.812	441.608	-245.187	2259.154	438.587	-267.887	2069.658	389.335	-270.549	2042.212	468.782	-224.533	1977.554	309.958	-287.842	1983.883	258.640	-232.136
